<!DOCTYPE svg PUBLIC "-//W3C//DTD SVG 1.1//EN" "http://www.w3.org/Graphics/SVG/1.1/DTD/svg11.dtd">
<!-- Uploaded to: SVG Repo, www.svgrepo.com, Transformed by: SVG Repo Mixer Tools -->
<svg fill="#B61C1C" height="256px" width="256px" version="1.1" id="Capa_1" xmlns="http://www.w3.org/2000/svg" xmlns:xlink="http://www.w3.org/1999/xlink" viewBox="0 0 360.00 360.00" xml:space="preserve" transform="rotate(0)matrix(-1, 0, 0, 1, 0, 0)" stroke="#B61C1C" stroke-width="0.0036000000000000003">
<g id="SVGRepo_bgCarrier" stroke-width="0"/>
<g id="SVGRepo_tracerCarrier" stroke-linecap="round" stroke-linejoin="round" stroke="#CCCCCC" stroke-width="2.1599999999999997"/>
<g id="SVGRepo_iconCarrier"> <path id="XMLID_16_" d="M205,25C119.533,25,50,94.533,50,180c0,40.473,15.599,77.365,41.092,105H0v50h210v-0.089 c83.162-2.65,150-71.117,150-154.911C360,94.533,290.467,25,205,25z M116.731,217.83c-20.893,0-37.83-16.937-37.83-37.83 s16.937-37.83,37.83-37.83s37.83,16.937,37.83,37.83S137.624,217.83,116.731,217.83z M205,306.099 c-20.893,0-37.83-16.937-37.83-37.83s16.937-37.83,37.83-37.83s37.83,16.937,37.83,37.83S225.893,306.099,205,306.099z M205,129.56 c-20.893,0-37.83-16.937-37.83-37.83c0-20.893,16.937-37.83,37.83-37.83s37.83,16.937,37.83,37.83 C242.83,112.623,225.893,129.56,205,129.56z M293.269,217.83c-20.893,0-37.83-16.937-37.83-37.83s16.937-37.83,37.83-37.83 s37.83,16.937,37.83,37.83S314.162,217.83,293.269,217.83z"/> </g>
</svg>